<?xml version="1.0" standalone="no"?>
<!DOCTYPE svg PUBLIC "-//W3C//DTD SVG 20010904//EN"
 "http://www.w3.org/TR/2001/REC-SVG-20010904/DTD/svg10.dtd">
<svg version="1.0" xmlns="http://www.w3.org/2000/svg"
 width="1280.000000pt" height="1280.000000pt" viewBox="0 0 1280.000000 1280.000000"
 preserveAspectRatio="xMidYMid meet">
<g transform="translate(0.000000,1280.000000) scale(0.100000,-0.100000)"
fill="#000000" stroke="none">
<path style="fill:#ffffff" d="M1490 6400 l0 -3740 1995 0 1995 0 0 3740 0 3740 -1995 0 -1995 0 0
-3740z m3190 0 l0 -2930 -1190 0 -1190 0 0 2930 0 2930 1190 0 1190 0 0 -2930z"/>
<path style="fill:#ffffff" d="M6900 9735 l0 -405 2200 0 2200 0 0 405 0 405 -2200 0 -2200 0 0
-405z"/>
<path style="fill:#ffffff" d="M6900 7505 l0 -405 2200 0 2200 0 0 405 0 405 -2200 0 -2200 0 0
-405z"/>
<path style="fill:#ffffff" d="M6900 5295 l0 -405 2200 0 2200 0 0 405 0 405 -2200 0 -2200 0 0
-405z"/>
<path style="fill:#ffffff" d="M6900 3065 l0 -405 2200 0 2200 0 0 405 0 405 -2200 0 -2200 0 0
-405z"/>
</g>
</svg>
